<?xml version="1.0" standalone="no"?>
<!DOCTYPE svg PUBLIC "-//W3C//DTD SVG 1.1//EN" "http://www.w3.org/Graphics/SVG/1.1/DTD/svg11.dtd" >
<!--
2013-9-30: Created.
-->
<svg>
<metadata>
Created by iconfont
</metadata>
<defs>

<font id="iconfont" horiz-adv-x="1024" >
  <font-face
    font-family="iconfont"
    font-weight="500"
    font-stretch="normal"
    units-per-em="1024"
    ascent="896"
    descent="-128"
  />
    <missing-glyph />
    
    <glyph glyph-name="tongji" unicode="&#58893;" d="M690.235508 693.856094l204.314595 0L894.550103-1.562844l-204.314595 0C690.235508-1.562844 690.235508 693.856094 690.235508 693.856094zM410.024212 346.152125l204.320223 0L614.344434-1.562844 410.024212-1.562844C410.024212-1.562844 410.024212 346.152125 410.024212 346.152125zM129.449513 489.534208l204.314595 0 0-491.09782-204.314595 0C129.449513-1.563612 129.449513 489.534208 129.449513 489.534208z"  horiz-adv-x="1024" />

    
    <glyph glyph-name="shouye" unicode="&#58921;" d="M1016.428071 420.365704c0.003054 0.182214 0.026467 0.35832 0.026467 0.541552 0 0.228022-0.028503 0.446882-0.033592 0.673886-0.011197 0.335925-0.027485 0.668796-0.050898 1.003703-0.519157 8.742189-5.026657 16.394149-11.749225 21.167335L530.825339 869.65191c-0.132334 0.151675-0.242273 0.314548-0.376643 0.463169-5.300486 5.895989-12.537121 8.997695-19.882677 9.24913-0.379697 0.018323-0.76143 0.004072-1.142144 0.007126-0.380715-0.002036-0.762448 0.011197-1.143162-0.007126-7.344538-0.251435-14.581173-3.35314-19.882677-9.24913-0.13437-0.148621-0.244309-0.311494-0.374607-0.463169L11.674914 441.458728c-0.180178-0.162873-0.334907-0.342033-0.508977-0.506941-0.35323-0.333889-0.696281-0.674903-1.031187-1.026098-0.320656-0.335925-0.631131-0.675921-0.932446-1.02508-0.285027-0.329817-0.559875-0.66676-0.829632-1.010828-0.304368-0.388858-0.601611-0.780771-0.883584-1.182863-0.235147-0.334907-0.460115-0.677957-0.681011-1.023044-0.26874-0.421433-0.530354-0.843884-0.775681-1.276514-0.206645-0.364428-0.39802-0.735981-0.588377-1.110588-0.216824-0.426523-0.427541-0.854063-0.62197-1.289748-0.182214-0.4082-0.347122-0.824543-0.509995-1.241904-0.161855-0.419397-0.320656-0.838794-0.463169-1.264299-0.148621-0.443828-0.279937-0.893764-0.406164-1.346753-0.117065-0.424487-0.230058-0.847956-0.327781-1.274478-0.103831-0.454007-0.191375-0.911069-0.272812-1.372202-0.080418-0.455025-0.150657-0.911069-0.208681-1.369148-0.05497-0.434666-0.098742-0.869333-0.133352-1.310107-0.040718-0.506941-0.064131-1.011846-0.077365-1.520823-0.00509-0.230058-0.033592-0.45299-0.033592-0.684065 0-0.186286 0.023413-0.365445 0.028503-0.551731 0.009162-0.519157 0.0397-1.037295 0.078382-1.556452 0.030539-0.416343 0.063113-0.831668 0.111975-1.242922 0.058023-0.485564 0.137424-0.968074 0.221914-1.450584 0.074311-0.43263 0.147603-0.863225 0.241255-1.287712 0.101795-0.455025 0.224968-0.904961 0.349158-1.355915 0.119101-0.43263 0.235147-0.865261 0.375625-1.289748 0.142514-0.436702 0.309458-0.867297 0.474367-1.297891 0.161855-0.420415 0.320656-0.84083 0.501851-1.252083 0.18425-0.419397 0.391912-0.828615 0.597539-1.239868 0.204609-0.4082 0.407182-0.815381 0.631131-1.211365 0.21886-0.38784 0.458079-0.766519 0.697298-1.146216 0.254488-0.405146 0.511013-0.80622 0.784843-1.198132 0.245327-0.34814 0.505923-0.687119 0.768555-1.027116 0.310476-0.402092 0.62706-0.798076 0.958913-1.180827 0.123172-0.144549 0.22904-0.298261 0.356284-0.440774 0.159819-0.177124 0.335925-0.328799 0.497779-0.500833 0.339997-0.359338 0.686101-0.709514 1.044421-1.050529 0.330835-0.314548 0.664724-0.618916 1.006756-0.914123 0.336943-0.290117 0.679993-0.571072 1.031187-0.84592 0.381733-0.300296 0.767537-0.591431 1.162503-0.869333 0.34305-0.241255 0.693227-0.469277 1.046457-0.696281 0.413289-0.26365 0.828615-0.520174 1.253101-0.76143 0.371553-0.211734 0.752268-0.407182 1.135019-0.601611 0.418379-0.211734 0.836758-0.419397 1.263281-0.608736 0.416343-0.187304 0.842866-0.356284 1.270407-0.52221 0.409218-0.158801 0.819453-0.31353 1.234778-0.451972 0.454007-0.151675 0.914123-0.286045 1.377292-0.414307 0.413289-0.115029 0.825561-0.224968 1.241904-0.31862 0.464187-0.106885 0.933464-0.197483 1.405794-0.279937 0.44281-0.078382 0.886638-0.147603 1.332502-0.204609 0.445864-0.055987 0.893764-0.100777 1.344717-0.135388 0.494726-0.0397 0.987415-0.063113 1.483159-0.075329 0.236165-0.006108 0.466223-0.035628 0.704424-0.035628l100.987143 0c-0.117065-1.481123-0.194429-2.973444-0.194429-4.485105l0-448.245858 0-0.001018c0-30.945801 25.086458-56.031241 56.031241-56.031241l196.124104 0c0.018323 0 0.036646 0.001018 0.053952 0.001018 30.920352 0.029521 55.97729 25.101727 55.97729 56.030223l0 232.846794 0 23.870003c0 15.472901 12.542211 28.015112 28.015112 28.015112l84.046353 0c15.471883 0 28.015112-12.542211 28.015112-28.015112l0-23.870003 0-232.846794c0-30.928496 25.056937-56.000703 55.975254-56.030223 0.020359 0 0.037664-0.001018 0.055987-0.001018l196.125122 0c30.943765 0 56.030223 25.08544 56.030223 56.031241l0 0.001018 0 448.245858c0 1.608367-0.083472 3.195358-0.215806 4.769114l97.039517 0c8.9356-1.270407 18.321136 1.785491 24.806521 9.002785 4.182773 4.653068 6.488439 10.324089 7.025918 16.11014 0.003054 0.033592 0.006108 0.067185 0.009162 0.100777C1016.382264 418.858114 1016.421964 419.6114 1016.428071 420.365704zM859.581722 448.923385c-6.432451 0-12.340656-2.191655-17.07007-5.836948-6.564785-5.060249-10.826959-12.947357-10.928754-21.853436-0.002036-0.108921-0.016287-0.214788-0.016287-0.324727s0.014251-0.215806 0.016287-0.324727l0-451.256965c0-15.472901-12.542211-28.015112-28.015112-28.015112L663.474922-58.688531c-15.25404 0-27.633379 12.196107-27.982537 27.366675L635.492385 224.673212c0 0.435684-0.022395 0.865261-0.032575 1.297891-0.692209 30.34419-25.487532 54.73335-55.998667 54.73335L439.384568 280.704453c-30.511135 0-55.306458-24.38916-55.998667-54.73335-0.01018-0.433648-0.032575-0.863225-0.032575-1.297891l0-255.996086c-0.34814-15.16955-12.729515-27.366675-27.982537-27.366675L215.276909-58.689549c-15.472901 0-28.015112 12.542211-28.015112 28.015112L187.261797 420.339237c0.001018 0.095688 0.014251 0.189339 0.014251 0.285027 0 0.095688-0.013233 0.189339-0.014251 0.284009-0.090598 9.058773-4.489177 17.068034-11.236176 22.123194-4.677499 3.505834-10.468639 5.607909-16.764684 5.607909l-55.781842 0 405.94478 364.905965L915.05207 448.923385 859.581722 448.923385z"  horiz-adv-x="1032" />

    
    <glyph glyph-name="zichantongji" unicode="&#58919;" d="M847.847559 207.342558 203.182051 207.342558c-22.363334 0-40.49325 18.129916-40.49325 40.49325L162.688801 702.179666c0 22.363334 18.128893 40.494273 40.49325 40.494273l644.665509 0c22.364357 0 40.494273-18.128893 40.494273-40.494273l0-454.342836C888.342856 225.472474 870.211916 207.342558 847.847559 207.342558zM838.938656 685.172317c0 4.473895-3.624551 8.099469-8.093329 8.099469L216.950635 693.271786c-4.471848 0-8.097422-3.625574-8.097422-8.099469L208.853214 260.79291c0-4.471848 3.625574-8.095375 8.097422-8.095375l613.890598 0c4.474918 0 8.096399 3.624551 8.096399 8.095375L838.937632 685.172317 838.938656 685.172317zM678.583504 549.112502l85.848227 0 0-249.440096-85.848227 0L678.583504 549.112502zM541.71323 626.051825l86.656639 0 0-326.379419-86.656639 0L541.71323 626.051825zM406.46285 471.363743l85.84925 0 0-171.691337-85.84925 0L406.46285 471.363743 406.46285 471.363743zM286.601972 395.235902l85.84618 0 0-95.565543-85.84618 0L286.601972 395.235902zM411.323555 174.947753c0 4.471848 3.625574 8.096399 8.099469 8.096399L629.98874 183.044152c4.474918 0 8.097422-3.626597 8.097422-8.096399l0-68.839855L776.577353 106.107899l0-48.592718L271.211447 57.515181l0 48.592718 140.111085 0L411.322531 174.947753z"  horiz-adv-x="1024" />

    
    <glyph glyph-name="shaixuan" unicode="&#59083;" d="M930.304 889.344 101.888 889.344C22.016 889.344 2.56 851.456 2.56 804.864c0-25.6 17.92-53.248 26.112-61.44l296.448-296.448 0-153.6 0 0 0-26.624 0 0c0 0 0 0 0-0.512 0-19.456 6.656-35.328 26.112-35.328s26.112 15.872 26.112 35.328c0 0 0 205.312 0 205.312 0 2.56-289.792 289.792-302.08 301.568-15.36 15.36-17.408 64.512 54.784 64.512l779.264 0c53.76 0 63.488-38.4 33.28-69.12l-251.392-250.368c-3.072-3.072-49.664-44.032-49.664-46.592 0-2.56 0-281.6 0-510.464 1.536-17.408-16.384-57.344-63.488-9.728l-76.8 71.68c-2.048 2.048-22.528 6.656-33.28-5.12-10.752-11.264-4.096-33.792-3.072-34.816l81.92-80.896c0.512-0.512 1.536-1.536 2.56-1.536 15.872-15.872 36.864-24.064 59.392-24.064 47.104 0 84.992 37.888 84.992 84.48L693.76 446.976l296.448 296.448c0.512 0.512 26.112 30.72 26.112 61.44C1014.784 851.456 976.896 889.344 930.304 889.344zM386.56 162.816c-20.48 0-37.376-16.896-37.376-37.376 0-20.48 16.896-37.376 37.376-37.376s37.376 16.896 37.376 37.376C423.424 145.92 407.04 162.816 386.56 162.816z"  horiz-adv-x="1024" />

    
    <glyph glyph-name="jian" unicode="&#58894;" d="M512-128C229.238154-128 0 101.238154 0 384S229.238154 896 512 896s512-229.238154 512-512-229.238154-512-512-512z m236.307692 551.384615H275.692308a39.384615 39.384615 0 1 1 0-78.76923h472.615384a39.384615 39.384615 0 0 1 0 78.76923z"  horiz-adv-x="1024" />

    
    <glyph glyph-name="jiahao2" unicode="&#58952;" d="M512-128C229.181-128 0 101.181 0 384 0 666.819 229.181 896 512 896c282.819 0 512-229.181 512-512 0-282.819-229.181-512-512-512z m-35.405 559h-185.93c-25.701-0.08-46.531-20.867-46.665-46.568a46.47 46.47 0 0 1 46.665-46.567h185.93v-185.93c0.08-25.7 20.866-46.531 46.567-46.665 25.893 0 46.568 20.87 46.568 46.665v185.93h185.929c25.701 0.08 46.531 20.866 46.665 46.567 0 25.893-20.87 46.568-46.665 46.568h-185.93V616.929c-0.08 25.701-20.866 46.531-46.567 46.665a46.47 46.47 0 0 1-46.567-46.665V431z"  horiz-adv-x="1024" />

    
    <glyph glyph-name="baobiao" unicode="&#58970;" d="M999.4395 263.875h-53.46c-12.641 0-26.738-1.722-34.447 11.27-1.996 3.451-4.125 6.895-6.121 10.337-17.424 29.441-17.823 30.24-34.448 58.209-1.197-0.133-2.129 0.399-1.33 2.121-12.642-18.829-9.581-16.435-22.214-35.13-5.714-8.616-11.569-17.232-17.291-25.857-4.125-6.096-8.383-14.188-14.762-17.897-7.311-4.249-17.157-3.185-25.408-3.185h-71.024c0-0.134-0.133-0.267-0.133-0.267a233963.377 233963.377 0 0 1-89.771-183.358c-8.384-17.107-38.706-13.789-41.899 5.439-7.71 45.866-15.553 91.741-23.271 137.616-16.234 96.125-32.585 192.249-48.819 288.499l-8.907 52.902c-15.96-64.039-5.448-22.139-21.416-86.177-16.351-66.026-32.851-131.92-49.202-197.946-2.928-11.535-15.702-19.087-27.404-16.176-30.065 0.266-58.392 0.399-88.448 0.665-15.427-4.641-26.197 3.443-30.589 15.511-11.577 31.287-6.52 17.507-18.097 48.661l-34.04-53.568c-9.573-14.979-27.936-11.935-43.222-11.935H22.1435c-29.524 0-29.524 45.742 0 45.742h182.078c19.819 31.287 32.585 51.181 52.404 82.336 11.169 17.631 35.113 12.99 41.891-5.439 11.569-31.287 17.024-45.742 28.602-76.896h68.363a91795.643 91795.643 0 0 1 43.488 175.275c16.359 66.026 32.851 131.919 49.21 197.946 5.19 20.95 40.436 22.805 44.294 0 7.71-45.875 15.553-91.75 23.271-137.625 16.234-96.116 32.585-192.24 48.819-288.49 8.907-52.91 6.512-38.19 15.419-91.084 0.133 0.266 0.133 0.266 0.133 0.133 31.388 64.03 33.517 68.413 64.904 132.452 3.459 7.02 12.242 11.261 19.827 11.261h86.976c22.613 33.683 37.642 55.955 60.255 89.629 9.439 14.047 30.455 15.511 39.629 0a30330.953 30330.953 0 0 0 52.944-89.629h54.923c29.391 0.397 29.391-45.345-0.134-45.345z"  horiz-adv-x="1024" />

    
    <glyph glyph-name="kucun" unicode="&#58881;" d="M491.235556 380.117333c-4.964848 0-8.274747 1.654949-11.584647 3.309899l-385.603232 220.108283c-11.584646 6.619798-16.549495 21.515636-9.929697 33.100283s21.514343 16.549495 33.09899 9.929697l385.603232-221.763232c11.584646-6.619798 16.549495-21.515636 9.929697-33.100283-3.309899-8.274747-11.584646-11.584646-21.514343-11.584647zM492.890505 380.117333c-8.274747 0-16.549495 4.964848-21.514343 13.239596-6.619798 11.584646-1.654949 26.479192 9.929697 33.09899l398.842828 223.419475c11.583354 6.618505 26.479192 1.653657 33.09899-9.93099 6.621091-11.584646 1.656242-26.477899-9.929697-33.09899l-398.842828-223.418182c-3.309899-3.309899-8.274747-3.309899-11.584647-3.309899zM890.078384 603.535515c-3.311192 0-8.274747 1.654949-11.583354 3.311192L482.960808 805.439354c-11.584646 6.619798-16.549495 21.515636-11.584646 33.100282 6.619798 11.584646 21.514343 16.549495 33.09899 11.584647L900.008081 651.529051c11.585939-6.619798 16.550788-21.514343 11.585939-33.09899-3.311192-9.928404-11.585939-14.894545-21.515636-14.894546zM112.252121 605.190465c-8.274747 0-18.204444 4.964848-21.514343 13.239596-6.619798 11.584646-1.654949 26.477899 11.584646 33.09899l380.638384 196.938989c11.584646 6.619798 26.479192 1.654949 33.09899-11.584646s1.654949-26.479192-11.584646-33.100283l-380.638384-195.282747c-3.309899-1.654949-6.619798-3.309899-11.584647-3.309899zM494.545455-81.975596c-4.964848 0-8.274747 1.654949-13.239596 3.311192L99.012525 154.682182c-11.584646 6.619798-14.894545 23.169293-8.274747 34.753939s23.169293 14.895838 34.753939 8.274748l382.293334-233.346586c11.584646-6.619798 14.894545-23.170586 8.274747-34.755232-4.964848-8.274747-13.239596-11.584646-21.514343-11.584647z m417.904484 251.769535c-2.319515-4.481293-5.337212-6.710303-9.12808-10.432646L517.505293-78.657939c-11.291152-7.420121-27.527758-2.806949-34.715152 8.494545-7.187394 11.301495-2.390626 27.766949 8.900526 35.185778L877.511111 203.041616c11.287273 7.418828 27.523879 2.804364 34.713859-8.495838 5.024323-8.283798 4.094707-17.278707 0.224969-24.751839zM501.165253-83.268525c-13.239596 0-24.824242 11.584646-24.824243 24.824242v458.42101c0 13.239596 11.584646 24.824242 24.824243 24.824243 13.239596 0 24.824242-11.584646 24.824242-24.824243v-458.422303c0-13.238303-11.584646-24.822949-24.824242-24.822949zM105.632323 155.044202c-13.239596 0-24.824242 11.584646-24.824242 24.824242v431.941819c0 13.239596 11.584646 24.824242 24.824242 24.824242 13.239596 0 24.824242-11.584646 24.824243-24.824242v-431.941819c0-13.239596-11.584646-24.824242-24.824243-24.824242z m785.670465 3.44695c-13.239596 0-24.825535 11.584646-24.825535 24.824242v431.941818c0 13.239596 11.585939 24.824242 24.825535 24.824243 13.238303 0 24.822949-11.584646 24.822949-24.824243v-431.941818c0-13.239596-11.584646-24.824242-24.822949-24.824242zM406.833131 284.130263c-4.964848 0-8.274747 1.654949-13.239596 3.311192l-185.354343 107.571717c-11.584646 6.619798-16.549495 21.514343-8.274748 34.753939 6.619798 11.584646 21.514343 16.549495 34.75394 8.273455l185.354343-107.571718c11.584646-6.619798 16.549495-21.514343 8.274748-34.753939-4.964848-8.274747-13.239596-11.584646-21.514344-11.584646z"  horiz-adv-x="1024" />

    
    <glyph glyph-name="app-tongji" unicode="&#58884;" d="M291.831 478.335h-180.082c-18.385 0-33.117-15.35-33.117-34.383v-473.284c0-18.538 14.76-34.129 33.117-34.129h180.082c18.458 0 33.335 15.59 33.335 34.129l-0 472.556v0.728c0.029 19.033-14.877 34.383-33.335 34.383zM285.921-21.318h-168v457.497h168v-457.497zM601.395 830.9h-180.212c-18.255 0-33.132-15.139-33.132-34.696l0-824.102v-1.433c0-18.531 14.877-34.129 33.132-34.129h180.212c18.545 0 33.597 15.597 33.597 34.129l0 824.589v0.939c-0 19.564-15.052 34.703-33.597 34.703zM593.244-24.681h-163.429l-0 816.801h163.429l0-816.801zM910.669 647.092h-180.096c-18.603 0-33.51-15.438-33.51-34.42v-642.019c0-18.538 14.907-34.121 33.51-34.121h180.096c18.371 0 33.015 15.597 33.015 34.121l-0 641.036v0.982c0.029 18.982-14.644 34.419-33.015 34.419zM904.205-25.554h-167.665l0.029 634.732h167.636l-0-634.732z"  horiz-adv-x="1024" />

    
    <glyph glyph-name="fanhui" unicode="&#58897;" d="M514.56 816.64c-240.34816 0-435.2-194.86208-435.2-435.2 0-240.34816 194.85696-435.2 435.2-435.2 240.34816 0 435.2 194.85696 435.2 435.2s-194.85184 435.2-435.2 435.2z m0-835.584c-220.75904 0-400.384 179.62496-400.384 400.38912 0 220.75904 179.62496 400.384 400.384 400.384 220.76416 0 400.384-179.62496 400.384-400.384 0-220.76416-179.61984-400.38912-400.384-400.38912zM441.02656 510.39232l3.84512 124.90752-220.4416-209.53088 220.4416-209.52064v141.00992s305.56672 108.81536 243.69152-229.67296c0 0 197.25312 411.01312-247.53664 382.80704z"  horiz-adv-x="1024" />

    
    <glyph glyph-name="mubiaozhongxin" unicode="&#58896;" d="M513.54 511.39A127.46 127.46 0 1 1 641 383.93c-0.29 70.36-57.39 127.46-127.46 127.46z m0-197A69.5 69.5 0 1 0 583 383.93a69.54 69.54 0 0 0-69.49-69.49z m419 98.62h-30.85a388.91 388.91 0 0 1-236.47 329.65 384.71 384.71 0 0 1-122.85 29.41V803.21a28.84 28.84 0 0 1-57.67 0v-30.85a389.66 389.66 0 0 1-329.89-236.75 383.06 383.06 0 0 1-29.41-122.56H93.68a28.84 28.84 0 0 1 0-57.67h31.72a390.83 390.83 0 0 1 29.41-122.55 388.14 388.14 0 0 1 329.6-236.47v-29.7a28.84 28.84 0 1 1 57.67 0v29.12a390.89 390.89 0 0 1 122.56 29.41 389.71 389.71 0 0 1 207 207.05 382.86 382.86 0 0 1 29.47 122.56H932a28.92 28.92 0 0 1 28.84 28.84c0.86 16.44-12.11 29.41-28.26 29.41zM542.38 54v67.51a28.84 28.84 0 0 1-57.67 0V54C324.95 67.87 197.2 195.34 183.36 355.09H254a28.84 28.84 0 1 1 0 57.67h-70.64C197.2 572.23 324.66 700 484.42 713.82v-65.17a28.83 28.83 0 0 1 57.67 0v65.46c160-13.84 287.51-141.59 301.35-301.06h-70.95a28.84 28.84 0 1 1 0-57.67h70.94c-13.84-160-141.3-287.5-301.06-301.35z"  horiz-adv-x="1024" />

    
    <glyph glyph-name="denglu" unicode="&#58880;" d="M512 564m-267 0a267 267 0 1 1 534 0 267 267 0 1 1-534 0ZM748.9 314.4c-68-44.9-149.3-71.1-236.9-71.1s-168.9 26.2-236.9 71.1C149.7 235.60000000000002 66.3 96 66.3-63.10000000000002h891.4c0 159.1-83.4 298.7-208.8 377.5z"  horiz-adv-x="1024" />

    
    <glyph glyph-name="shijian" unicode="&#58892;" d="M856.704 389.494c-13.162-6.613-24.681-12.372-26.2-13.066L511.825 229.552 193.176 376.428l-1.866-3.543 1.455 3.7c-2.151 0.854-29.109 13.195-48.536 24.268l-8.7 4.967v-10.029c0-5.284 0.664-52.143 24.616-64.863l314.281-141.24c13.195-6.266 24.49-10.379 36.545-10.379 11.992 0 23.889 4.113 38.189 10.313l314.441 141.369c20.125 9.365 24.49 49.959 24.49 64.799v9.43l-31.387-15.726zM830.504 228.477L511.825 81.539 193.176 228.477l-1.866-3.543 1.424 3.669c-2.121 0.824-28.92 13.037-48.473 24.3l-8.702 4.937v-10c0-5.315 0.665-52.142 24.616-64.861l314.25-141.303c13.227-6.203 24.522-10.379 36.577-10.379 11.96 0 23.89 4.113 38.157 10.379l314.38 141.303c20.187 9.429 24.552 49.993 24.552 64.861v9.365l-27.59-13.792c-14.682-7.405-28.35-14.239-29.997-14.936zM160.144 478.94L474.425 337.7c13.195-6.203 24.49-10.381 36.545-10.381 11.992 0 23.889 4.115 38.189 10.315l314.38 141.37c12.402 5.757 20.502 20.249 21.009 37.777 0.631 18.827-7.278 35.09-20.693 42.431L549.731 725.038c-26.516 15.726-43.602 16.105-75.559 0.127L159.384 558.959c-13.605-8.764-21.611-25.343-20.85-43.221 0.695-16.231 8.669-29.899 21.61-36.798z m44.106 40.848l307.575 165.447 307.607-165.447-307.607-129.597L204.25 519.788z"  horiz-adv-x="1024" />

    
    <glyph glyph-name="mobanguanli" unicode="&#58971;" d="M91.989333 804.010667l-0.042666-840.021334h419.882666l0.042667 840.021334H91.989333z m63.957334-776.021334l0.042666 712.021334h291.882667l-0.042667-712.021334H155.946667z m419.541333 776.021334h356.48v-64h-356.48v64z m0-160.853334h356.48v-64h-356.48v64z m0-160.896h356.48v-64h-356.48v64zM947.754667 141.909333l-1.664 0.853334a42.24 42.24 0 0 0-9.258667 70.741333 32.64 32.64 0 0 1 7.082667 40.064l-33.152 47.146667-1.664 0.853333c-2.602667 3.328-7.594667 5.76-10.922667 7.381333a36.906667 36.906667 0 0 1-28.373333 1.365334c-9.984-3.498667-30.805333-7.978667-39.168-3.84-10.069333 4.821333-18.645333 21.418667-22.954667 33.92-1.792 9.088-8.533333 16.554667-18.688 21.418666-3.328 1.578667-8.405333 4.096-12.501333 4.010667l-1.749334 0.853333-59.221333-2.389333a32.682667 32.682667 0 0 1-27.136-30.421333c0.896-2.474667-0.768-9.941333-4.010667-16.725334a42.24 42.24 0 0 0-57.344-19.882666l-1.664 0.810666a24.021333 24.021333 0 0 1-18.432 0.682667 43.946667 43.946667 0 0 1-16.469333-12.714667c-0.896-1.664-13.952-20.224-21.290667-35.328s-12.928-35.2-14.506666-38.528c-1.664-7.552-2.346667-13.354667 0.213333-20.821333a23.168 23.168 0 0 1 11.861333-14.08l1.664-0.853333a42.154667 42.154667 0 0 0 9.258667-70.741334 32.682667 32.682667 0 0 1-7.082667-40.106666l33.109334-47.104c2.56-3.328 7.637333-5.802667 10.965333-7.424a36.821333 36.821333 0 0 1 28.416-1.237334c9.898667 3.413333 30.762667 7.850667 40.746667 2.901334 10.112-4.906667 19.584-23.936 22.997333-33.92 1.792-9.173333 10.197333-17.322667 18.688-21.461334 3.328-1.578667 8.32-4.053333 12.544-4.053333l1.621333-0.853333 59.306667 2.432a32.768 32.768 0 0 1 27.136 30.421333c-0.896 2.474667 0.768 9.898667 4.010667 16.725333a42.154667 42.154667 0 0 0 57.344 19.882667l1.706666-0.853333a23.936 23.936 0 0 1 20.053334-1.408c4.949333 1.792 11.562667 6.826667 16.512 12.757333 0 0 13.098667 18.517333 21.248 35.285333 8.106667 16.896 13.738667 36.906667 14.592 38.528 1.578667 7.552 2.346667 13.354667-0.256 20.821334a24.106667 24.106667 0 0 1-13.568 14.890666z m-34.346667-53.930666a387.541333 387.541333 0 0 0-17.237333-22.656 78.506667 78.506667 0 0 1-56.704-1.536 81.664 81.664 0 0 1-54.314667-64.896l-40.021333-1.322667c-1.706667 4.906667-5.162667 10.752-7.850667 18.261333-10.154667 17.408-20.394667 30.634667-33.834667 37.162667-13.354667 6.4-29.312 8.021333-50.090666 3.498667-6.656-0.896-11.562667-2.688-19.072-5.205334l-22.144 31.36c4.138667 4.309333 9.856 11.776 13.952 20.266667 9.770667 20.138667 11.904 41.813333 3.328 62.634667a92.501333 92.501333 0 0 1-33.92 45.354666c1.578667 7.637333 5.674667 16 9.728 24.32 3.285333 6.741333 9.856 16 13.141333 22.698667 17.578667-6.442667 38.442667-6.229333 56.746667 1.493333a82.432 82.432 0 0 1 47.104 41.557334 83.2 83.2 0 0 1 7.210666 23.424l42.496 2.176c1.706667-4.949333 5.034667-10.752 8.533334-16.597334 10.154667-17.322667 21.162667-28.970667 34.645333-35.413333 13.44-6.485333 29.354667-8.021333 49.28-5.248 6.656 0.896 11.648 2.688 18.304 3.584l23.808-32.256c-4.138667-4.266667-9.813333-11.776-13.909333-20.224-9.770667-20.224-11.946667-41.856-3.328-62.634667 6.016-17.450667 16.981333-33.152 33.877333-45.482666-1.621333-7.424-5.717333-15.829333-9.728-24.32zM791.509333 230.101333a78.762667 78.762667 0 0 1-104.661333-36.352 78.805333 78.805333 0 0 1 36.352-104.661333 78.72 78.72 0 0 1 104.661333 36.352 77.696 77.696 0 0 1-36.352 104.661333z m-0.597333-86.869333c-8.106667-16.810667-30.592-24.490667-48.981333-15.573333-18.517333 8.96-26.24 31.317333-18.176 48.170666 9.002667 18.517333 30.592 24.576 49.066666 15.573334 18.432-8.917333 26.24-31.317333 18.090667-48.170667z"  horiz-adv-x="1024" />

    
    <glyph glyph-name="renwu" unicode="&#58972;" d="M722.794 450.622L442.403 170.23l-141.197 141.2c-15.62 15.619-40.947 15.621-56.568 0-15.621-15.621-15.621-40.947 0-56.568l169.481-169.483c7.811-7.812 18.046-11.716 28.284-11.716 10.237 0 20.474 3.905 28.284 11.716l308.675 308.675c15.621 15.621 15.621 40.947 0 56.568s-40.947 15.621-56.568 0zM852.153 732.996H736.204c-0.681 46.657-38.378 84.514-84.987 85.398-4.558 43.546-41.485 77.6-86.219 77.6H458.999c-44.732 0-81.66-34.054-86.218-77.6-46.605-0.888-84.307-38.744-84.987-85.398H171.846c-46.965 0-85.038-38.073-85.038-85.039v-690.912c0-46.966 38.073-85.039 85.038-85.039h680.307c46.964 0 85.038 38.073 85.038 85.039V647.957c0 46.966-38.074 85.039-85.038 85.039z m-477.699 25.415h27.854c16.567 0 29.999 13.431 29.999 30v20.89c0 14.719 11.975 26.693 26.692 26.693h105.999c14.719 0 26.693-11.975 26.693-26.693v-20.891c0-16.568 13.432-30 30-30h27.854c14.29 0 25.99-11.288 26.66-25.415 0.02-0.424 0.032-0.849 0.032-1.278V662.689c0-14.718-11.974-26.692-26.692-26.692H374.454c-14.719 0-26.693 11.974-26.693 26.692V731.717c0 0.429 0.012 0.854 0.032 1.278 0.669 14.128 12.371 25.416 26.661 25.416z m502.737-801.366c0-13.806-11.231-25.039-25.038-25.039H171.846c-13.807 0-25.039 11.233-25.039 25.039V647.957c0 13.807 11.232 25.04 25.039 25.04h115.916v-10.307c0-47.802 38.89-86.691 86.692-86.691h275.091c47.803 0 86.691 38.889 86.691 86.691v10.307h115.917c13.807 0 25.038-11.233 25.038-25.04v-690.912z"  horiz-adv-x="1024" />

    
    <glyph glyph-name="dingwei" unicode="&#58946;" d="M509.221056 896C307.219814 896 148.346408 735.083756 148.346408 537.385027c0-89.656596 95.682396-227.793491 145.212644-292.776264 54.905535-72.035697 160.048894-213.938717 162.137381-216.837491 13.694999-16.924737 32.548449-26.591124 53.056711-26.625361s39.692673 9.700625 53.730048 26.899261c83.847634 107.037833 137.10977 171.575518 169.703868 216.038616 22.003299 30.014874 143.455119 177.487193 143.455119 293.301239C875.607942 735.106581 711.222298 896 509.221056 896z m176.619843-616.046726c-33.598399-44.805473-86.734997-112.858208-168.688155-217.522241-2.841712-3.51505-6.07145-5.455175-9.13-5.455175a11.4125 11.4125 0 0 0-7.98875 4.005788c-4.42805 6.2084-112.413121 149.926007-165.618193 219.473778-47.590123 62.209535-134.667495 184.540118-134.667495 256.91819 0 166.964868 138.775994 302.80785 309.347213 302.807851s309.278738-135.808745 309.278738-302.807851c0.159775-67.66471-71.944397-176.619843-132.533358-257.42034zM509.243881 730.998082c-93.879221 0-170.263081-74.751872-170.26308-166.622494s76.395272-166.565431 170.26308-166.565431 170.183193 74.717635 170.183194 166.622494-76.338209 166.565431-170.183194 166.565431z m0-277.380802c-62.437785 0-113.246233 49.701436-113.246233 110.769721s50.808448 110.746896 113.246233 110.746895 113.166346-49.701436 113.166346-110.803958-50.797035-110.712658-113.166346-110.712658zM511.640506-127.997934C335.363038-127.598497 148.140983-69.086612 148.380646 38.567497c0.125537 53.501798 47.932498 99.779484 134.667494 130.319332l20.063175-57.062498c-57.245098-20.154474-94.244421-48.982448-94.301484-73.428022-0.102712-42.933823 117.868295-105.531383 302.921975-105.953646s303.298588 61.627498 303.401301 104.572734c0 24.034724-34.317386 51.755685-89.656597 72.286772l21.033237 56.70871c83.379722-30.927874 129.21232-76.794709 129.098195-129.12102-0.205425-107.631283-187.689968-165.287231-363.967436-164.887793zM292.153045 139.983648m-0.06849-30.185984a30.186061 30.186061 0 1 1 0.13698 60.371967 30.186061 30.186061 0 1 1-0.13698-60.371967ZM736.067338 137.694305m-0.06849-30.185983a30.186061 30.186061 0 1 1 0.13698 60.371967 30.186061 30.186061 0 1 1-0.13698-60.371967Z"  horiz-adv-x="1024" />

    
    <glyph glyph-name="wenbenyu" unicode="&#59006;" d="M213.349495 121.919385l603.397787 603.397786 30.169889-30.169889-603.397786-603.397787-30.16989 30.16989ZM554.645269 39.595498l301.698893 301.698893 30.16989-30.169889-301.698894-301.698893-30.169889 30.169889Z"  horiz-adv-x="1024" />

    
    <glyph glyph-name="wangzhan" unicode="&#58883;" d="M1022.486 875.435H67.618a61.606 61.606 0 0 1-1.709 0.022c-17.668 0-33.756-6.77-45.812-17.858C7.847 846.34 0.13 830.219 0 812.299l0.004-610.146c0.287-17.91 8.108-33.939 20.424-45.096 11.722-10.785 27.808-17.556 45.477-17.556 0.602 0 1.2 0.007 1.799 0.023l440.62-0.001v-179.567H237.161a35.043 35.043 0 0 1-0.648 0.006c-19.616 0-35.569-15.684-36.007-35.196 0-19.47 16.37-35.27 36.724-35.27h615.634c0.214-0.004 0.468-0.007 0.72-0.007 19.618 0 35.572 15.687 36.008 35.198-0.435 19.592-16.388 35.278-36.008 35.278-0.252 0-0.504-0.003-0.758-0.006H581.771V139.524h440.709c0.508-0.015 1.106-0.022 1.707-0.022 17.67 0 33.758 6.77 45.811 17.86 12.235 11.24 19.948 27.33 20.1 45.222l-0.007 610.152c-0.285 17.912-8.108 33.94-20.426 45.099-11.719 10.783-27.806 17.555-45.476 17.555-0.601 0-1.202-0.008-1.8-0.025l0.097 0.07z m-5.837-667.59H73.454V804.976h943.195v-597.13zM311.395 613.452h468.026c14.944 0 27.189 11.672 27.189 26.05-0.316 14.457-12.11 26.056-26.612 26.056-0.202 0-0.404-0.003-0.605-0.008l-467.994 0.002a27.656 27.656 0 0 1-0.576 0.006c-14.503 0-26.297-11.599-26.61-26.027-0.001-14.405 12.17-26.078 27.187-26.078h-0.005z m351.943-90.103H426.763a27.75 27.75 0 0 1-0.575 0.006c-14.503 0-26.294-11.599-26.614-26.026-0.001-14.477 12.17-26.078 27.187-26.078h236.575c14.947 0 27.19 11.601 27.19 26.047-0.317 14.457-12.112 26.055-26.615 26.055-0.204 0-0.404-0.001-0.606-0.006l0.033 0.002z"  horiz-adv-x="1090" />

    
    <glyph glyph-name="guanli" unicode="&#58929;" d="M510.930049 191.716786A192.270131 192.270131 0 1 0 703.20018 383.986917a192.270131 192.270131 0 0 0-192.270131-192.270131z m0 327.655607A135.385477 135.385477 0 1 1 646.315526 383.986917a135.385477 135.385477 0 0 1-135.385477 135.954323zM618.442045-127.974971H409.106518a28.442327 28.442327 0 0 0-28.442327 28.442327 145.055868 145.055868 0 0 1-145.055868 145.055868 142.780482 142.780482 0 0 1-73.381204-20.478475 28.442327 28.442327 0 0 0-39.250411 10.239238l-108.080843 184.875126a28.442327 28.442327 0 0 0 10.239237 38.681564A143.349328 143.349328 0 0 1 97.94746 383.986917 143.349328 143.349328 0 0 1 25.135102 509.702002a28.442327 28.442327 0 0 0-10.239237 38.681565l106.374303 184.306279a28.442327 28.442327 0 0 0 39.250411 10.239238 142.211635 142.211635 0 0 1 73.381204-20.478475A145.055868 145.055868 0 0 1 378.957651 867.506477 28.442327 28.442327 0 0 0 409.106518 895.948804h211.042067a28.442327 28.442327 0 0 0 28.442327-28.442327 145.055868 145.055868 0 0 1 145.055868-145.055868A142.780482 142.780482 0 0 1 864.183751 741.791391a28.442327 28.442327 0 0 0 38.681565-10.808084l105.805457-182.59974a28.442327 28.442327 0 0 0-10.239238-38.681565 143.918175 143.918175 0 0 1 0-250.292478 28.442327 28.442327 0 0 0 10.239238-38.681565l-105.805457-182.59974a28.442327 28.442327 0 0 0-38.681565-10.239237 142.780482 142.780482 0 0 1-71.105818 19.340782 145.055868 145.055868 0 0 1-145.055868-145.055868 28.442327 28.442327 0 0 0-29.58002-30.148867z m-184.875126 56.884654h158.139339a202.509369 202.509369 0 0 0 200.233982 173.498196 193.976671 193.976671 0 0 0 73.381204-14.221164l79.069669 137.092016a200.233983 200.233983 0 0 0 0 316.847524L864.183751 679.787118a195.114364 195.114364 0 0 0-73.381204-14.221163A202.509369 202.509369 0 0 0 591.706258 839.06415H433.566919a202.509369 202.509369 0 0 0-199.665136-173.498195 194.545517 194.545517 0 0 0-76.794283 15.358856l-79.638516-138.229709A201.940522 201.940522 0 0 0 154.832114 383.986917a201.940522 201.940522 0 0 0-77.931976-158.139339l79.638515-138.22971a195.114364 195.114364 0 0 0 76.794284 15.358857A202.509369 202.509369 0 0 0 433.566919-71.090317z"  horiz-adv-x="1024" />

    
    <glyph glyph-name="icon-" unicode="&#59103;" d="M512-128C230.4-128 0 102.39999999999998 0 384 0 585.6 121.6 771.2 307.2 854.4c16 6.4 35.2 0 41.6-16 6.4-16 0-35.2-16-41.6C169.6 723.2 64 563.2 64 384c0-246.4 201.6-448 448-448s448 201.6 448 448c0 179.2-105.6 339.2-268.8 409.6-16 6.4-22.4 25.6-16 41.6s25.6 22.4 41.6 16C902.4 771.2 1024 588.8 1024 384c0-281.6-230.4-512-512-512zM512 384c-19.2 0-32 12.8-32 32V864c0 19.2 12.8 32 32 32s32-12.8 32-32v-448c0-19.2-12.8-32-32-32z"  horiz-adv-x="1024" />

    
    <glyph glyph-name="fuwuqi" unicode="&#58951;" d="M136.533333 759.466667v-136.533334h750.933334v136.533334h-750.933334z m-17.066666 51.2h785.066666c18.773333 0 34.133333-15.36 34.133334-34.133334v-170.666666c0-18.773333-15.36-34.133333-34.133334-34.133334h-785.066666c-18.773333 0-34.133333 15.36-34.133334 34.133334v170.666666c0 18.773333 15.36 34.133333 34.133334 34.133334zM136.533333 145.066667v-136.533334h750.933334v136.533334h-750.933334z m-17.066666 51.2h785.066666c18.773333 0 34.133333-15.36 34.133334-34.133334v-170.666666c0-18.773333-15.36-34.133333-34.133334-34.133334h-785.066666c-18.773333 0-34.133333 15.36-34.133334 34.133334v170.666666c0 18.773333 15.36 34.133333 34.133334 34.133334zM136.533333 452.266667v-136.533334h750.933334v136.533334h-750.933334z m-17.066666 51.2h785.066666c18.773333 0 34.133333-15.36 34.133334-34.133334v-170.666666c0-18.773333-15.36-34.133333-34.133334-34.133334h-785.066666c-18.773333 0-34.133333 15.36-34.133334 34.133334v170.666666c0 18.773333 15.36 34.133333 34.133334 34.133334zM802.133333 725.333333h34.133334c10.24 0 17.066667-6.826667 17.066666-17.066666v-34.133334c0-10.24-6.826667-17.066667-17.066666-17.066666h-34.133334c-10.24 0-17.066667 6.826667-17.066666 17.066666v34.133334c0 10.24 6.826667 17.066667 17.066666 17.066666zM802.133333 418.133333h34.133334c10.24 0 17.066667-6.826667 17.066666-17.066666v-34.133334c0-10.24-6.826667-17.066667-17.066666-17.066666h-34.133334c-10.24 0-17.066667 6.826667-17.066666 17.066666v34.133334c0 10.24 6.826667 17.066667 17.066666 17.066666zM802.133333 110.933333h34.133334c10.24 0 17.066667-6.826667 17.066666-17.066666v-34.133334c0-10.24-6.826667-17.066667-17.066666-17.066666h-34.133334c-10.24 0-17.066667 6.826667-17.066666 17.066666v34.133334c0 10.24 6.826667 17.066667 17.066666 17.066666z"  horiz-adv-x="1024" />

    
    <glyph glyph-name="wangluo" unicode="&#58904;" d="M571.463 822.651v-126.24h-126.24V822.651h126.24m63.117 63.12H382.105v-252.475H634.58V885.771zM950.175 65.223v-126.24h-126.24v126.24h126.24m-378.712 0v-126.24h-126.24v126.24h126.24m-378.715 0v-126.24H66.508v126.24h126.24m347.154 568.072h-63.117v-189.358H98.072V128.34H3.393v-252.475h252.475V128.34h-94.679V380.815h315.597V128.34h-94.679v-252.475h252.475V128.34h-94.679V380.815H855.5V128.34h-94.679v-252.475h252.475V128.34h-94.679V443.937H539.904V633.295z"  horiz-adv-x="1024" />

    
    <glyph glyph-name="mima" unicode="&#58944;" d="M817.4-61.5H207.2c-19.1 0-34.5 15.5-34.5 34.5V410.6c0 19.1 15.5 34.5 34.5 34.5h24.2V521c-0.7 8.4-1.2 16.8-1.2 25.4 0 155.8 126.3 282.1 282.1 282.1s282.1-126.3 282.1-282.1v-101.3h23c19.1 0 34.5-15.5 34.5-34.5v-437.5c0.1-19.1-15.4-34.6-34.5-34.6zM495.1 165.1v-79.2h34.5v79.2c33 7.8 57.6 37.4 57.6 72.8 0 41.3-33.5 74.8-74.8 74.8s-74.8-33.5-74.8-74.8c-0.1-35.4 24.5-65 57.5-72.8z m224.5 379v2.3c0 114.5-92.8 207.2-207.2 207.2s-207.2-92.8-207.2-207.2v-101.3h414.5v99z"  horiz-adv-x="1024" />

    
    <glyph glyph-name="quanping" unicode="&#58890;" d="M909-63H780a30 30 0 0 0 0 60h99a20 20 0 0 1 20 20v99a30 30 0 0 0 60 0v-129a50 50 0 0 0-50-50z m20 685a30 30 0 0 0-30 30v99a20 20 0 0 1-20 20h-99a30 30 0 0 0 0 60h129a50 50 0 0 0 50-50v-129a30 30 0 0 0-30-30z m-157-28v-420a50 50 0 0 0-50-50H302a50 50 0 0 0-50 50V594a50 50 0 0 0 50 50h420a50 50 0 0 0 50-50z m-60-30a20 20 0 0 1-20 20H332a20 20 0 0 1-20-20v-360a20 20 0 0 1 20-20h360a20 20 0 0 1 20 20V564zM244 771h-99a20 20 0 0 1-20-20v-99a30 30 0 0 0-60 0V781a50 50 0 0 0 50 50h129a30 30 0 0 0 0-60zM95 146a30 30 0 0 0 30-30v-99a20 20 0 0 1 20-20h99a30 30 0 0 0 0-60H115a50 50 0 0 0-50 50V116a30 30 0 0 0 30 30z"  horiz-adv-x="1024" />

    
    <glyph glyph-name="baobiao1" unicode="&#59034;" d="M736 192h-448c-19.2 0-32-12.8-32-32s12.8-32 32-32h448c19.2 0 32 12.8 32 32s-12.8 32-32 32zM256 416c0-19.2 12.8-32 32-32h448c19.2 0 32 12.8 32 32s-12.8 32-32 32h-448c-19.2 0-32-12.8-32-32zM288 576h192c19.2 0 32 12.8 32 32S499.2 640 480 640h-192c-19.2 0-32-12.8-32-32s12.8-32 32-32z m608-32c0 6.4 0 19.2-6.4 25.6l-256 256C627.2 832 614.4 832 608 832H192c-32 0-64-32-64-64v-768c0-32 32-64 64-64h640c38.4 0 64 32 64 64V544zM787.2 576h-115.2c-19.2 0-32 12.8-32 32V723.2L787.2 576z m44.8-544c0-19.2-12.8-32-32-32h-576c-19.2 0-32 12.8-32 32v704c0 19.2 12.8 32 32 32H576v-204.8c0-25.6 25.6-51.2 51.2-51.2H832v-480z"  horiz-adv-x="1024" />

    
    <glyph glyph-name="shijianzhongbiao" unicode="&#58902;" d="M736 384H512V608c0 17.92-14.08 32-32 32s-32-14.08-32-32v-256c0-17.92 14.08-32 32-32h256c17.92 0 32 14.08 32 32s-14.08 32-32 32zM480 832C215.04 832 0 616.96 0 352c0-264.96 215.04-480 480-480 264.96 0 480 215.04 480 480 0 264.96-215.04 480-480 480z m0-896C250.24-64 64 122.24 64 352s186.24 416 416 416 416-186.24 416-416-186.24-416-416-416z"  horiz-adv-x="1024" />

    
    <glyph glyph-name="yibiaopan1" unicode="&#58882;" d="M725.504307 486.4l-165.888-290.816a80.7936 80.7936 0 1 0-150.016-40.96A81.1008 81.1008 0 0 0 488.960307 235.52l165.376 290.304a40.704 40.704 0 1 0 71.168-39.424zM512.000307 745.984A511.3344 511.3344 0 0 1 35.840307 46.592c6.144-16.896 35.328-24.576 51.712-17.92s34.816 25.088 28.16 41.472a418.5088 418.5088 0 0 0-31.232 160.768v2.56c0 246.784 180.224 427.52 427.52 427.52s413.184-188.928 422.4-427.52c2.048-56.832-5.12-112.128-26.112-164.352-6.656-16.896-4.096-35.328 12.8-41.472a102.7072 102.7072 0 0 1 31.232-5.632c12.8 1.024 30.72 10.752 35.328 23.552a506.88 506.88 0 0 1 36.352 187.904A512.9728 512.9728 0 0 1 512.000307 745.984z"  horiz-adv-x="1024" />

    
    <glyph glyph-name="anquanpinggu" unicode="&#58886;" d="M512-119.808c-2.56 0-5.12 0.512-7.168 1.536l-16.384 7.68c-265.728 122.88-361.984 334.848-396.288 491.008-15.36 69.632-21.504 141.824-19.456 215.04 1.536 55.296 8.192 91.136 9.216 95.232l6.144 31.744c1.536 8.192 8.704 13.824 16.896 13.824h32.256c110.592 0 195.584 31.744 247.296 58.368 56.32 29.696 87.04 59.392 87.552 59.904l27.648 28.16c3.072 3.072 7.68 5.12 12.288 5.12 4.608 0 8.704-1.536 12.288-5.12l27.648-27.648c1.024-1.024 31.744-30.72 88.576-59.392 51.712-26.624 136.704-58.88 247.296-58.88h32.256c8.192 0 15.36-5.632 16.896-13.824l6.144-31.744c1.024-5.632 26.112-143.36-10.24-310.272-34.304-156.672-131.072-368.64-396.288-491.008l-16.384-7.68c-3.072-1.536-5.632-2.048-8.192-2.048zM146.432 679.424l-3.072-16.384c-1.024-5.12-23.04-127.488 9.216-275.456 30.208-138.24 115.712-325.632 350.72-434.176l8.704-4.096 8.704 4.096c235.008 108.544 320.512 295.936 350.72 434.176 32.768 148.48 10.24 270.336 9.216 275.456l-3.072 16.384H860.16c-48.128 0-95.744 6.144-140.8 18.432-36.352 9.728-71.168 23.552-104.448 40.448-57.344 29.696-88.064 59.904-88.576 60.416l-14.336 14.336-14.336-14.336c-2.048-2.048-32.256-31.232-88.064-60.416-32.768-16.896-67.584-30.72-104.448-40.448-45.568-12.288-93.184-18.432-141.824-18.432h-16.896zM746.496 525.824c0-13.312-10.752-24.064-24.064-24.064H301.568c-13.312 0-24.064 10.752-24.064 24.064s10.752 24.064 24.064 24.064h420.864c13.312 0 24.064-10.752 24.064-24.064z m-107.52-141.312c0-13.312-10.752-24.064-24.064-24.064H301.568c-13.312 0-24.064 10.752-24.064 24.064s10.752 24.064 24.064 24.064h313.344c13.312 0 24.064-10.752 24.064-24.064z m-79.872-142.336c0-13.312-10.752-24.064-24.064-24.064H301.568c-13.312 0-24.064 10.752-24.064 24.064s10.752 24.064 24.064 24.064h232.96c13.312 0.512 24.576-10.752 24.576-24.064z"  horiz-adv-x="1024" />

    


  </font>
</defs>
</svg>
